<mxfile host="app.diagrams.net" agent="Mozilla/5.0 (Windows NT 10.0; Win64; x64) AppleWebKit/537.36 (KHTML, like Gecko) Chrome/141.0.0.0 Safari/537.36" version="28.0.7">
  <diagram id="C5RBs43oDa-KdzZeNtuy" name="Page-1">
    <mxGraphModel dx="3773" dy="2278" grid="1" gridSize="10" guides="1" tooltips="1" connect="1" arrows="1" fold="1" page="1" pageScale="1" pageWidth="827" pageHeight="1169" math="0" shadow="0">
      <root>
        <mxCell id="WIyWlLk6GJQsqaUBKTNV-0" />
        <mxCell id="WIyWlLk6GJQsqaUBKTNV-1" parent="WIyWlLk6GJQsqaUBKTNV-0" />
        <mxCell id="P16qLfPArKi5Of1Ckz9v-0" value="Start" style="rounded=1;whiteSpace=wrap;html=1;" vertex="1" parent="WIyWlLk6GJQsqaUBKTNV-1">
          <mxGeometry x="70" y="-1070" width="120" height="60" as="geometry" />
        </mxCell>
        <mxCell id="P16qLfPArKi5Of1Ckz9v-1" value="" style="endArrow=classic;html=1;rounded=0;exitX=0.5;exitY=1;exitDx=0;exitDy=0;" edge="1" parent="WIyWlLk6GJQsqaUBKTNV-1" source="P16qLfPArKi5Of1Ckz9v-0">
          <mxGeometry width="50" height="50" relative="1" as="geometry">
            <mxPoint x="390" y="-510" as="sourcePoint" />
            <mxPoint x="130" y="-970" as="targetPoint" />
          </mxGeometry>
        </mxCell>
        <mxCell id="P16qLfPArKi5Of1Ckz9v-2" value="Query DB for new transactions for current date." style="rounded=1;whiteSpace=wrap;html=1;" vertex="1" parent="WIyWlLk6GJQsqaUBKTNV-1">
          <mxGeometry x="70" y="-970" width="120" height="60" as="geometry" />
        </mxCell>
        <mxCell id="P16qLfPArKi5Of1Ckz9v-3" value="If no new transactions on current date, then skip new categorizations" style="rhombus;whiteSpace=wrap;html=1;" vertex="1" parent="WIyWlLk6GJQsqaUBKTNV-1">
          <mxGeometry x="-42.5" y="-880" width="345" height="350" as="geometry" />
        </mxCell>
        <mxCell id="P16qLfPArKi5Of1Ckz9v-4" value="" style="endArrow=classic;html=1;rounded=0;exitX=0.5;exitY=1;exitDx=0;exitDy=0;entryX=0.5;entryY=0;entryDx=0;entryDy=0;" edge="1" parent="WIyWlLk6GJQsqaUBKTNV-1" source="P16qLfPArKi5Of1Ckz9v-2" target="P16qLfPArKi5Of1Ckz9v-3">
          <mxGeometry width="50" height="50" relative="1" as="geometry">
            <mxPoint x="390" y="-510" as="sourcePoint" />
            <mxPoint x="440" y="-560" as="targetPoint" />
          </mxGeometry>
        </mxCell>
        <mxCell id="P16qLfPArKi5Of1Ckz9v-5" value="" style="endArrow=classic;html=1;rounded=0;exitX=1;exitY=0.5;exitDx=0;exitDy=0;" edge="1" parent="WIyWlLk6GJQsqaUBKTNV-1" source="P16qLfPArKi5Of1Ckz9v-3">
          <mxGeometry width="50" height="50" relative="1" as="geometry">
            <mxPoint x="390" y="-510" as="sourcePoint" />
            <mxPoint x="370" y="-705" as="targetPoint" />
          </mxGeometry>
        </mxCell>
        <mxCell id="P16qLfPArKi5Of1Ckz9v-6" value="" style="endArrow=classic;html=1;rounded=0;exitX=0.5;exitY=1;exitDx=0;exitDy=0;" edge="1" parent="WIyWlLk6GJQsqaUBKTNV-1" source="P16qLfPArKi5Of1Ckz9v-3">
          <mxGeometry width="50" height="50" relative="1" as="geometry">
            <mxPoint x="390" y="-510" as="sourcePoint" />
            <mxPoint x="130" y="-480" as="targetPoint" />
          </mxGeometry>
        </mxCell>
        <mxCell id="P16qLfPArKi5Of1Ckz9v-7" value="" style="rounded=1;whiteSpace=wrap;html=1;" vertex="1" parent="WIyWlLk6GJQsqaUBKTNV-1">
          <mxGeometry x="370" y="-735" width="120" height="60" as="geometry" />
        </mxCell>
        <mxCell id="P16qLfPArKi5Of1Ckz9v-8" value="" style="rounded=1;whiteSpace=wrap;html=1;" vertex="1" parent="WIyWlLk6GJQsqaUBKTNV-1">
          <mxGeometry x="70" y="-480" width="120" height="60" as="geometry" />
        </mxCell>
        <mxCell id="P16qLfPArKi5Of1Ckz9v-10" value="No" style="text;html=1;align=center;verticalAlign=middle;whiteSpace=wrap;rounded=0;" vertex="1" parent="WIyWlLk6GJQsqaUBKTNV-1">
          <mxGeometry x="302.5" y="-740" width="60" height="30" as="geometry" />
        </mxCell>
        <mxCell id="P16qLfPArKi5Of1Ckz9v-11" value="Yes" style="text;html=1;align=center;verticalAlign=middle;whiteSpace=wrap;rounded=0;" vertex="1" parent="WIyWlLk6GJQsqaUBKTNV-1">
          <mxGeometry x="140" y="-520" width="60" height="30" as="geometry" />
        </mxCell>
      </root>
    </mxGraphModel>
  </diagram>
</mxfile>
